<?xml version="1.0" encoding="iso-8859-1"?>
<!-- Generator: Adobe Illustrator 19.0.0, SVG Export Plug-In . SVG Version: 6.00 Build 0)  -->
<svg xmlns="http://www.w3.org/2000/svg" xmlns:xlink="http://www.w3.org/1999/xlink" version="1.1" id="Layer_1" x="0px" y="0px" viewBox="0 0 512.001 512.001" style="enable-background:new 0 0 512.001 512.001;" xml:space="preserve">
<path style="fill:#fedc5f;" d="M503.983,59.324L29.869,304.556c-5.571,2.882-3.522,11.302,2.75,11.302h129.319l45.576,106.344  c2.57,5.996,10.638,7.023,14.627,1.86l57.975-75.025l144.54,96.361c5.141,3.428,12.109,0.438,13.168-5.65L503.983,59.324z"/>
<path style="fill:#fedc5f;" d="M161.938,315.858l45.576,106.344c2.57,5.996,10.638,7.023,14.626,1.86L503.983,59.324  L161.938,315.858z"/>
<path style="fill:#fedc5f;" d="M199.606,403.75l7.908,18.451c2.57,5.996,10.638,7.023,14.627,1.86L503.983,59.323L199.606,403.75z"/>
<path d="M508.724,52.859c-2.455-1.801-5.72-2.055-8.424-0.656L4.334,308.737c-3.284,1.698-4.98,5.424-4.107,9.016  c0.874,3.593,4.093,6.122,7.79,6.122h148.635l43.493,101.486c2.339,5.456,7.25,9.159,13.139,9.909  c5.887,0.748,11.57-1.608,15.2-6.304l53.404-69.111l149.24,99.493c1.337,0.891,2.887,1.347,4.448,1.347  c1.071,0,2.146-0.215,3.161-0.649c2.492-1.069,4.273-3.323,4.737-5.993L511.882,60.7C512.403,57.697,511.18,54.661,508.724,52.859z   M422.153,110.676L159.266,307.841H40.965L422.153,110.676z M429.784,439.181l-138.069-92.047l10.045-13  c2.707-3.504,2.062-8.538-1.442-11.246c-3.503-2.707-8.538-2.062-11.246,1.442l-73.277,94.829c-0.074,0.095-0.186,0.245-0.491,0.203  c-0.304-0.039-0.376-0.207-0.423-0.32l-43.094-100.553L461.47,101.229L337.632,261.49c-2.707,3.504-2.062,8.538,1.442,11.246  c1.459,1.128,3.184,1.674,4.897,1.674c2.398,0,4.769-1.071,6.349-3.116L490.541,89.831L429.784,439.181z"/>
<path d="M328.875,285.934c-3.503-2.707-8.538-2.062-11.246,1.442l-8.114,10.501c-2.707,3.503-2.062,8.538,1.442,11.246  c1.459,1.128,3.184,1.674,4.897,1.674c2.398,0,4.769-1.071,6.349-3.116l8.114-10.501  C333.024,293.676,332.378,288.642,328.875,285.934z"/>
<g>
</g>
<g>
</g>
<g>
</g>
<g>
</g>
<g>
</g>
<g>
</g>
<g>
</g>
<g>
</g>
<g>
</g>
<g>
</g>
<g>
</g>
<g>
</g>
<g>
</g>
<g>
</g>
<g>
</g>
</svg>
